<mxfile host="app.diagrams.net" modified="2024-04-22T17:49:39.123Z" agent="Mozilla/5.0 (X11; Linux x86_64) AppleWebKit/537.36 (KHTML, like Gecko) Chrome/124.0.0.0 Safari/537.36" etag="SebkEvYt7s2By14afJ4j" version="24.2.7" type="device">
  <diagram name="Page-1" id="2YBvvXClWsGukQMizWep">
    <mxGraphModel dx="1364" dy="759" grid="1" gridSize="10" guides="1" tooltips="1" connect="1" arrows="1" fold="1" page="1" pageScale="1" pageWidth="850" pageHeight="1100" math="0" shadow="0">
      <root>
        <mxCell id="0" />
        <mxCell id="1" parent="0" />
        <mxCell id="0C-G54YOIwX8pN_zbaVP-4" value="" style="rounded=0;whiteSpace=wrap;html=1;" parent="1" vertex="1">
          <mxGeometry x="40" y="213" width="720" height="337" as="geometry" />
        </mxCell>
        <mxCell id="0C-G54YOIwX8pN_zbaVP-11" value="" style="endArrow=classic;html=1;rounded=0;" parent="1" edge="1">
          <mxGeometry width="50" height="50" relative="1" as="geometry">
            <mxPoint x="110" y="250" as="sourcePoint" />
            <mxPoint x="385.5" y="250" as="targetPoint" />
          </mxGeometry>
        </mxCell>
        <mxCell id="0C-G54YOIwX8pN_zbaVP-13" value="&lt;font style=&quot;font-size: 13px;&quot;&gt;login&lt;/font&gt;" style="edgeLabel;html=1;align=center;verticalAlign=middle;resizable=0;points=[];" parent="0C-G54YOIwX8pN_zbaVP-11" vertex="1" connectable="0">
          <mxGeometry x="-0.103" y="3" relative="1" as="geometry">
            <mxPoint x="-4" y="-17" as="offset" />
          </mxGeometry>
        </mxCell>
        <mxCell id="0C-G54YOIwX8pN_zbaVP-15" value="&lt;span style=&quot;font-size: 13px;&quot;&gt;recherche&lt;/span&gt;" style="edgeLabel;html=1;align=center;verticalAlign=middle;resizable=0;points=[];" parent="0C-G54YOIwX8pN_zbaVP-11" vertex="1" connectable="0">
          <mxGeometry x="-0.103" y="3" relative="1" as="geometry">
            <mxPoint x="302" y="3" as="offset" />
          </mxGeometry>
        </mxCell>
        <mxCell id="0C-G54YOIwX8pN_zbaVP-18" value="&lt;span style=&quot;font-size: 13px;&quot;&gt;admin trouvé&lt;/span&gt;" style="edgeLabel;html=1;align=center;verticalAlign=middle;resizable=0;points=[];" parent="0C-G54YOIwX8pN_zbaVP-11" vertex="1" connectable="0">
          <mxGeometry x="-0.103" y="3" relative="1" as="geometry">
            <mxPoint x="296" y="49" as="offset" />
          </mxGeometry>
        </mxCell>
        <mxCell id="0C-G54YOIwX8pN_zbaVP-22" value="&lt;span style=&quot;font-size: 13px;&quot;&gt;admin connecté&lt;/span&gt;" style="edgeLabel;html=1;align=center;verticalAlign=middle;resizable=0;points=[];" parent="0C-G54YOIwX8pN_zbaVP-11" vertex="1" connectable="0">
          <mxGeometry x="-0.103" y="3" relative="1" as="geometry">
            <mxPoint x="6" y="93" as="offset" />
          </mxGeometry>
        </mxCell>
        <mxCell id="0C-G54YOIwX8pN_zbaVP-60" value="&lt;span style=&quot;font-size: 13px;&quot;&gt;message d&#39;erreur&lt;/span&gt;" style="edgeLabel;html=1;align=center;verticalAlign=middle;resizable=0;points=[];" parent="0C-G54YOIwX8pN_zbaVP-11" vertex="1" connectable="0">
          <mxGeometry x="-0.103" y="3" relative="1" as="geometry">
            <mxPoint x="6" y="273" as="offset" />
          </mxGeometry>
        </mxCell>
        <mxCell id="0C-G54YOIwX8pN_zbaVP-12" value="" style="endArrow=classic;html=1;rounded=0;" parent="1" edge="1">
          <mxGeometry width="50" height="50" relative="1" as="geometry">
            <mxPoint x="400" y="270.5" as="sourcePoint" />
            <mxPoint x="655" y="270.5" as="targetPoint" />
            <Array as="points">
              <mxPoint x="485" y="270.5" />
            </Array>
          </mxGeometry>
        </mxCell>
        <mxCell id="0C-G54YOIwX8pN_zbaVP-17" value="" style="endArrow=none;dashed=1;html=1;rounded=0;startArrow=classic;startFill=1;" parent="1" edge="1">
          <mxGeometry width="50" height="50" relative="1" as="geometry">
            <mxPoint x="400" y="310" as="sourcePoint" />
            <mxPoint x="650" y="310" as="targetPoint" />
          </mxGeometry>
        </mxCell>
        <mxCell id="0C-G54YOIwX8pN_zbaVP-21" value="" style="endArrow=none;dashed=1;html=1;rounded=0;startArrow=classic;startFill=1;" parent="1" edge="1">
          <mxGeometry width="50" height="50" relative="1" as="geometry">
            <mxPoint x="110" y="360" as="sourcePoint" />
            <mxPoint x="385.5" y="360" as="targetPoint" />
          </mxGeometry>
        </mxCell>
        <mxCell id="0C-G54YOIwX8pN_zbaVP-38" value="&lt;font style=&quot;font-size: 15px;&quot;&gt;:admin&lt;/font&gt;" style="shape=umlLifeline;perimeter=lifelinePerimeter;whiteSpace=wrap;html=1;container=0;dropTarget=0;collapsible=0;recursiveResize=0;outlineConnect=0;portConstraint=eastwest;newEdgeStyle={&quot;edgeStyle&quot;:&quot;elbowEdgeStyle&quot;,&quot;elbow&quot;:&quot;vertical&quot;,&quot;curved&quot;:0,&quot;rounded&quot;:0};" parent="1" vertex="1">
          <mxGeometry x="40" y="120" width="120" height="460" as="geometry" />
        </mxCell>
        <mxCell id="0C-G54YOIwX8pN_zbaVP-39" value="" style="html=1;points=[];perimeter=orthogonalPerimeter;outlineConnect=0;targetShapes=umlLifeline;portConstraint=eastwest;newEdgeStyle={&quot;edgeStyle&quot;:&quot;elbowEdgeStyle&quot;,&quot;elbow&quot;:&quot;vertical&quot;,&quot;curved&quot;:0,&quot;rounded&quot;:0};" parent="0C-G54YOIwX8pN_zbaVP-38" vertex="1">
          <mxGeometry x="55" y="76" width="10" height="364" as="geometry" />
        </mxCell>
        <mxCell id="0C-G54YOIwX8pN_zbaVP-41" value="&lt;font style=&quot;font-size: 15px;&quot;&gt;:system&lt;/font&gt;" style="shape=umlLifeline;perimeter=lifelinePerimeter;whiteSpace=wrap;html=1;container=0;dropTarget=0;collapsible=0;recursiveResize=0;outlineConnect=0;portConstraint=eastwest;newEdgeStyle={&quot;edgeStyle&quot;:&quot;elbowEdgeStyle&quot;,&quot;elbow&quot;:&quot;vertical&quot;,&quot;curved&quot;:0,&quot;rounded&quot;:0};" parent="1" vertex="1">
          <mxGeometry x="323" y="121" width="135" height="459" as="geometry" />
        </mxCell>
        <mxCell id="0C-G54YOIwX8pN_zbaVP-42" value="" style="html=1;points=[];perimeter=orthogonalPerimeter;outlineConnect=0;targetShapes=umlLifeline;portConstraint=eastwest;newEdgeStyle={&quot;edgeStyle&quot;:&quot;elbowEdgeStyle&quot;,&quot;elbow&quot;:&quot;vertical&quot;,&quot;curved&quot;:0,&quot;rounded&quot;:0};" parent="0C-G54YOIwX8pN_zbaVP-41" vertex="1">
          <mxGeometry x="62.5" y="76" width="10" height="364" as="geometry" />
        </mxCell>
        <mxCell id="0C-G54YOIwX8pN_zbaVP-44" value="&lt;font style=&quot;font-size: 15px;&quot;&gt;:Bdd&lt;/font&gt;" style="shape=umlLifeline;perimeter=lifelinePerimeter;whiteSpace=wrap;html=1;container=0;dropTarget=0;collapsible=0;recursiveResize=0;outlineConnect=0;portConstraint=eastwest;newEdgeStyle={&quot;edgeStyle&quot;:&quot;elbowEdgeStyle&quot;,&quot;elbow&quot;:&quot;vertical&quot;,&quot;curved&quot;:0,&quot;rounded&quot;:0};" parent="1" vertex="1">
          <mxGeometry x="610" y="121" width="100" height="459" as="geometry" />
        </mxCell>
        <mxCell id="0C-G54YOIwX8pN_zbaVP-45" value="" style="html=1;points=[];perimeter=orthogonalPerimeter;outlineConnect=0;targetShapes=umlLifeline;portConstraint=eastwest;newEdgeStyle={&quot;edgeStyle&quot;:&quot;elbowEdgeStyle&quot;,&quot;elbow&quot;:&quot;vertical&quot;,&quot;curved&quot;:0,&quot;rounded&quot;:0};" parent="0C-G54YOIwX8pN_zbaVP-44" vertex="1">
          <mxGeometry x="45" y="80" width="10" height="360" as="geometry" />
        </mxCell>
        <mxCell id="0C-G54YOIwX8pN_zbaVP-47" value="" style="endArrow=classic;html=1;rounded=0;" parent="1" edge="1">
          <mxGeometry width="50" height="50" relative="1" as="geometry">
            <mxPoint x="110" y="460" as="sourcePoint" />
            <mxPoint x="385.5" y="460" as="targetPoint" />
          </mxGeometry>
        </mxCell>
        <mxCell id="0C-G54YOIwX8pN_zbaVP-48" value="&lt;font style=&quot;font-size: 13px;&quot;&gt;login&lt;/font&gt;" style="edgeLabel;html=1;align=center;verticalAlign=middle;resizable=0;points=[];" parent="0C-G54YOIwX8pN_zbaVP-47" vertex="1" connectable="0">
          <mxGeometry x="-0.103" y="3" relative="1" as="geometry">
            <mxPoint x="-4" y="-17" as="offset" />
          </mxGeometry>
        </mxCell>
        <mxCell id="0C-G54YOIwX8pN_zbaVP-49" value="&lt;span style=&quot;font-size: 13px;&quot;&gt;recherche&lt;/span&gt;" style="edgeLabel;html=1;align=center;verticalAlign=middle;resizable=0;points=[];" parent="0C-G54YOIwX8pN_zbaVP-47" vertex="1" connectable="0">
          <mxGeometry x="-0.103" y="3" relative="1" as="geometry">
            <mxPoint x="302" y="3" as="offset" />
          </mxGeometry>
        </mxCell>
        <mxCell id="0C-G54YOIwX8pN_zbaVP-50" value="&lt;span style=&quot;font-size: 13px;&quot;&gt;admin non présent en bdd&lt;/span&gt;" style="edgeLabel;html=1;align=center;verticalAlign=middle;resizable=0;points=[];" parent="0C-G54YOIwX8pN_zbaVP-47" vertex="1" connectable="0">
          <mxGeometry x="-0.103" y="3" relative="1" as="geometry">
            <mxPoint x="296" y="49" as="offset" />
          </mxGeometry>
        </mxCell>
        <mxCell id="0C-G54YOIwX8pN_zbaVP-53" value="" style="endArrow=none;dashed=1;html=1;rounded=0;entryX=1.004;entryY=0.611;entryDx=0;entryDy=0;entryPerimeter=0;" parent="1" target="0C-G54YOIwX8pN_zbaVP-4" edge="1">
          <mxGeometry width="50" height="50" relative="1" as="geometry">
            <mxPoint x="40" y="420" as="sourcePoint" />
            <mxPoint x="450" y="470" as="targetPoint" />
          </mxGeometry>
        </mxCell>
        <mxCell id="0C-G54YOIwX8pN_zbaVP-56" value="&lt;font style=&quot;font-size: 15px;&quot;&gt;Diagramme de séquences connection amin/user&lt;/font&gt;" style="text;html=1;align=center;verticalAlign=middle;whiteSpace=wrap;rounded=0;" parent="1" vertex="1">
          <mxGeometry x="260.5" y="30" width="339.5" height="30" as="geometry" />
        </mxCell>
        <mxCell id="0C-G54YOIwX8pN_zbaVP-57" value="" style="endArrow=classic;html=1;rounded=0;" parent="1" edge="1">
          <mxGeometry width="50" height="50" relative="1" as="geometry">
            <mxPoint x="400" y="479" as="sourcePoint" />
            <mxPoint x="655" y="479" as="targetPoint" />
          </mxGeometry>
        </mxCell>
        <mxCell id="0C-G54YOIwX8pN_zbaVP-58" value="" style="endArrow=none;dashed=1;html=1;rounded=0;startArrow=classic;startFill=1;" parent="1" edge="1">
          <mxGeometry width="50" height="50" relative="1" as="geometry">
            <mxPoint x="400" y="520" as="sourcePoint" />
            <mxPoint x="650" y="520" as="targetPoint" />
          </mxGeometry>
        </mxCell>
        <mxCell id="0C-G54YOIwX8pN_zbaVP-59" value="" style="endArrow=none;dashed=1;html=1;rounded=0;startArrow=classic;startFill=1;" parent="1" edge="1">
          <mxGeometry width="50" height="50" relative="1" as="geometry">
            <mxPoint x="110" y="530" as="sourcePoint" />
            <mxPoint x="385.5" y="530" as="targetPoint" />
          </mxGeometry>
        </mxCell>
        <mxCell id="0C-G54YOIwX8pN_zbaVP-62" value="&lt;b&gt;else&lt;/b&gt;" style="text;html=1;align=center;verticalAlign=middle;whiteSpace=wrap;rounded=0;" parent="1" vertex="1">
          <mxGeometry x="40" y="420" width="60" height="30" as="geometry" />
        </mxCell>
        <mxCell id="0C-G54YOIwX8pN_zbaVP-63" value="&lt;b&gt;Alt&lt;/b&gt;" style="text;html=1;align=center;verticalAlign=middle;whiteSpace=wrap;rounded=0;" parent="1" vertex="1">
          <mxGeometry x="40" y="213" width="60" height="30" as="geometry" />
        </mxCell>
        <mxCell id="uxA-M76Pu_6o26QJUWB1-1" value="!" style="rounded=0;whiteSpace=wrap;html=1;" parent="1" vertex="1">
          <mxGeometry x="42" y="688" width="720" height="337" as="geometry" />
        </mxCell>
        <mxCell id="uxA-M76Pu_6o26QJUWB1-2" value="" style="endArrow=classic;html=1;rounded=0;" parent="1" edge="1">
          <mxGeometry width="50" height="50" relative="1" as="geometry">
            <mxPoint x="112" y="725" as="sourcePoint" />
            <mxPoint x="387.5" y="725" as="targetPoint" />
          </mxGeometry>
        </mxCell>
        <mxCell id="uxA-M76Pu_6o26QJUWB1-3" value="&lt;font style=&quot;font-size: 13px;&quot;&gt;login&lt;/font&gt;" style="edgeLabel;html=1;align=center;verticalAlign=middle;resizable=0;points=[];" parent="uxA-M76Pu_6o26QJUWB1-2" vertex="1" connectable="0">
          <mxGeometry x="-0.103" y="3" relative="1" as="geometry">
            <mxPoint x="-4" y="-17" as="offset" />
          </mxGeometry>
        </mxCell>
        <mxCell id="uxA-M76Pu_6o26QJUWB1-4" value="&lt;span style=&quot;font-size: 13px;&quot;&gt;recherche&lt;/span&gt;" style="edgeLabel;html=1;align=center;verticalAlign=middle;resizable=0;points=[];" parent="uxA-M76Pu_6o26QJUWB1-2" vertex="1" connectable="0">
          <mxGeometry x="-0.103" y="3" relative="1" as="geometry">
            <mxPoint x="302" y="3" as="offset" />
          </mxGeometry>
        </mxCell>
        <mxCell id="uxA-M76Pu_6o26QJUWB1-5" value="&lt;span style=&quot;font-size: 13px;&quot;&gt;utilisteur trouvé&lt;/span&gt;" style="edgeLabel;html=1;align=center;verticalAlign=middle;resizable=0;points=[];" parent="uxA-M76Pu_6o26QJUWB1-2" vertex="1" connectable="0">
          <mxGeometry x="-0.103" y="3" relative="1" as="geometry">
            <mxPoint x="296" y="49" as="offset" />
          </mxGeometry>
        </mxCell>
        <mxCell id="uxA-M76Pu_6o26QJUWB1-7" value="&lt;span style=&quot;font-size: 13px;&quot;&gt;utilisteur connecté&lt;/span&gt;" style="edgeLabel;html=1;align=center;verticalAlign=middle;resizable=0;points=[];" parent="uxA-M76Pu_6o26QJUWB1-2" vertex="1" connectable="0">
          <mxGeometry x="-0.103" y="3" relative="1" as="geometry">
            <mxPoint x="6" y="123" as="offset" />
          </mxGeometry>
        </mxCell>
        <mxCell id="uxA-M76Pu_6o26QJUWB1-8" value="&lt;span style=&quot;font-size: 13px;&quot;&gt;message d&#39;erreur&lt;/span&gt;" style="edgeLabel;html=1;align=center;verticalAlign=middle;resizable=0;points=[];" parent="uxA-M76Pu_6o26QJUWB1-2" vertex="1" connectable="0">
          <mxGeometry x="-0.103" y="3" relative="1" as="geometry">
            <mxPoint x="6" y="273" as="offset" />
          </mxGeometry>
        </mxCell>
        <mxCell id="uxA-M76Pu_6o26QJUWB1-9" value="" style="endArrow=classic;html=1;rounded=0;" parent="1" edge="1">
          <mxGeometry width="50" height="50" relative="1" as="geometry">
            <mxPoint x="402" y="745.5" as="sourcePoint" />
            <mxPoint x="657" y="745.5" as="targetPoint" />
            <Array as="points">
              <mxPoint x="487" y="745.5" />
            </Array>
          </mxGeometry>
        </mxCell>
        <mxCell id="uxA-M76Pu_6o26QJUWB1-11" value="" style="endArrow=none;dashed=1;html=1;rounded=0;startArrow=classic;startFill=1;" parent="1" edge="1">
          <mxGeometry width="50" height="50" relative="1" as="geometry">
            <mxPoint x="402" y="785" as="sourcePoint" />
            <mxPoint x="652" y="785" as="targetPoint" />
          </mxGeometry>
        </mxCell>
        <mxCell id="uxA-M76Pu_6o26QJUWB1-12" value="" style="endArrow=none;dashed=1;html=1;rounded=0;startArrow=classic;startFill=1;" parent="1" edge="1">
          <mxGeometry width="50" height="50" relative="1" as="geometry">
            <mxPoint x="112" y="865" as="sourcePoint" />
            <mxPoint x="387.5" y="865" as="targetPoint" />
          </mxGeometry>
        </mxCell>
        <mxCell id="uxA-M76Pu_6o26QJUWB1-13" value="&lt;font style=&quot;font-size: 15px;&quot;&gt;:user&lt;/font&gt;" style="shape=umlLifeline;perimeter=lifelinePerimeter;whiteSpace=wrap;html=1;container=0;dropTarget=0;collapsible=0;recursiveResize=0;outlineConnect=0;portConstraint=eastwest;newEdgeStyle={&quot;edgeStyle&quot;:&quot;elbowEdgeStyle&quot;,&quot;elbow&quot;:&quot;vertical&quot;,&quot;curved&quot;:0,&quot;rounded&quot;:0};" parent="1" vertex="1">
          <mxGeometry x="42" y="595" width="120" height="480" as="geometry" />
        </mxCell>
        <mxCell id="uxA-M76Pu_6o26QJUWB1-14" value="" style="html=1;points=[];perimeter=orthogonalPerimeter;outlineConnect=0;targetShapes=umlLifeline;portConstraint=eastwest;newEdgeStyle={&quot;edgeStyle&quot;:&quot;elbowEdgeStyle&quot;,&quot;elbow&quot;:&quot;vertical&quot;,&quot;curved&quot;:0,&quot;rounded&quot;:0};" parent="uxA-M76Pu_6o26QJUWB1-13" vertex="1">
          <mxGeometry x="55" y="76" width="10" height="364" as="geometry" />
        </mxCell>
        <mxCell id="uxA-M76Pu_6o26QJUWB1-15" value="&lt;font style=&quot;font-size: 15px;&quot;&gt;:system&lt;/font&gt;" style="shape=umlLifeline;perimeter=lifelinePerimeter;whiteSpace=wrap;html=1;container=0;dropTarget=0;collapsible=0;recursiveResize=0;outlineConnect=0;portConstraint=eastwest;newEdgeStyle={&quot;edgeStyle&quot;:&quot;elbowEdgeStyle&quot;,&quot;elbow&quot;:&quot;vertical&quot;,&quot;curved&quot;:0,&quot;rounded&quot;:0};" parent="1" vertex="1">
          <mxGeometry x="325" y="596" width="135" height="479" as="geometry" />
        </mxCell>
        <mxCell id="uxA-M76Pu_6o26QJUWB1-16" value="" style="html=1;points=[];perimeter=orthogonalPerimeter;outlineConnect=0;targetShapes=umlLifeline;portConstraint=eastwest;newEdgeStyle={&quot;edgeStyle&quot;:&quot;elbowEdgeStyle&quot;,&quot;elbow&quot;:&quot;vertical&quot;,&quot;curved&quot;:0,&quot;rounded&quot;:0};" parent="uxA-M76Pu_6o26QJUWB1-15" vertex="1">
          <mxGeometry x="62.5" y="76" width="10" height="364" as="geometry" />
        </mxCell>
        <mxCell id="uxA-M76Pu_6o26QJUWB1-17" value="&lt;font style=&quot;font-size: 15px;&quot;&gt;:Bdd&lt;/font&gt;" style="shape=umlLifeline;perimeter=lifelinePerimeter;whiteSpace=wrap;html=1;container=0;dropTarget=0;collapsible=0;recursiveResize=0;outlineConnect=0;portConstraint=eastwest;newEdgeStyle={&quot;edgeStyle&quot;:&quot;elbowEdgeStyle&quot;,&quot;elbow&quot;:&quot;vertical&quot;,&quot;curved&quot;:0,&quot;rounded&quot;:0};" parent="1" vertex="1">
          <mxGeometry x="612" y="596" width="100" height="479" as="geometry" />
        </mxCell>
        <mxCell id="uxA-M76Pu_6o26QJUWB1-18" value="" style="html=1;points=[];perimeter=orthogonalPerimeter;outlineConnect=0;targetShapes=umlLifeline;portConstraint=eastwest;newEdgeStyle={&quot;edgeStyle&quot;:&quot;elbowEdgeStyle&quot;,&quot;elbow&quot;:&quot;vertical&quot;,&quot;curved&quot;:0,&quot;rounded&quot;:0};" parent="uxA-M76Pu_6o26QJUWB1-17" vertex="1">
          <mxGeometry x="45" y="80" width="10" height="360" as="geometry" />
        </mxCell>
        <mxCell id="uxA-M76Pu_6o26QJUWB1-19" value="" style="endArrow=classic;html=1;rounded=0;" parent="1" edge="1">
          <mxGeometry width="50" height="50" relative="1" as="geometry">
            <mxPoint x="112" y="935" as="sourcePoint" />
            <mxPoint x="387.5" y="935" as="targetPoint" />
          </mxGeometry>
        </mxCell>
        <mxCell id="uxA-M76Pu_6o26QJUWB1-20" value="&lt;font style=&quot;font-size: 13px;&quot;&gt;login&lt;/font&gt;" style="edgeLabel;html=1;align=center;verticalAlign=middle;resizable=0;points=[];" parent="uxA-M76Pu_6o26QJUWB1-19" vertex="1" connectable="0">
          <mxGeometry x="-0.103" y="3" relative="1" as="geometry">
            <mxPoint x="-4" y="-17" as="offset" />
          </mxGeometry>
        </mxCell>
        <mxCell id="uxA-M76Pu_6o26QJUWB1-21" value="&lt;span style=&quot;font-size: 13px;&quot;&gt;recherche&lt;/span&gt;" style="edgeLabel;html=1;align=center;verticalAlign=middle;resizable=0;points=[];" parent="uxA-M76Pu_6o26QJUWB1-19" vertex="1" connectable="0">
          <mxGeometry x="-0.103" y="3" relative="1" as="geometry">
            <mxPoint x="302" y="3" as="offset" />
          </mxGeometry>
        </mxCell>
        <mxCell id="uxA-M76Pu_6o26QJUWB1-22" value="&lt;span style=&quot;font-size: 13px;&quot;&gt;utilisateur non présent en bdd&lt;/span&gt;" style="edgeLabel;html=1;align=center;verticalAlign=middle;resizable=0;points=[];" parent="uxA-M76Pu_6o26QJUWB1-19" vertex="1" connectable="0">
          <mxGeometry x="-0.103" y="3" relative="1" as="geometry">
            <mxPoint x="296" y="49" as="offset" />
          </mxGeometry>
        </mxCell>
        <mxCell id="uxA-M76Pu_6o26QJUWB1-23" value="" style="endArrow=none;dashed=1;html=1;rounded=0;entryX=1.004;entryY=0.611;entryDx=0;entryDy=0;entryPerimeter=0;" parent="1" target="uxA-M76Pu_6o26QJUWB1-1" edge="1">
          <mxGeometry width="50" height="50" relative="1" as="geometry">
            <mxPoint x="42" y="895" as="sourcePoint" />
            <mxPoint x="452" y="945" as="targetPoint" />
          </mxGeometry>
        </mxCell>
        <mxCell id="uxA-M76Pu_6o26QJUWB1-24" value="" style="endArrow=classic;html=1;rounded=0;" parent="1" edge="1">
          <mxGeometry width="50" height="50" relative="1" as="geometry">
            <mxPoint x="402" y="954" as="sourcePoint" />
            <mxPoint x="657" y="954" as="targetPoint" />
          </mxGeometry>
        </mxCell>
        <mxCell id="uxA-M76Pu_6o26QJUWB1-25" value="" style="endArrow=none;dashed=1;html=1;rounded=0;startArrow=classic;startFill=1;" parent="1" edge="1">
          <mxGeometry width="50" height="50" relative="1" as="geometry">
            <mxPoint x="402" y="995" as="sourcePoint" />
            <mxPoint x="652" y="995" as="targetPoint" />
          </mxGeometry>
        </mxCell>
        <mxCell id="uxA-M76Pu_6o26QJUWB1-26" value="" style="endArrow=none;dashed=1;html=1;rounded=0;startArrow=classic;startFill=1;" parent="1" edge="1">
          <mxGeometry width="50" height="50" relative="1" as="geometry">
            <mxPoint x="112" y="1005" as="sourcePoint" />
            <mxPoint x="387.5" y="1005" as="targetPoint" />
          </mxGeometry>
        </mxCell>
        <mxCell id="uxA-M76Pu_6o26QJUWB1-27" value="&lt;b&gt;else&lt;/b&gt;" style="text;html=1;align=center;verticalAlign=middle;whiteSpace=wrap;rounded=0;" parent="1" vertex="1">
          <mxGeometry x="42" y="895" width="60" height="30" as="geometry" />
        </mxCell>
        <mxCell id="uxA-M76Pu_6o26QJUWB1-28" value="&lt;b&gt;Alt&lt;/b&gt;" style="text;html=1;align=center;verticalAlign=middle;whiteSpace=wrap;rounded=0;" parent="1" vertex="1">
          <mxGeometry x="42" y="688" width="60" height="30" as="geometry" />
        </mxCell>
      </root>
    </mxGraphModel>
  </diagram>
</mxfile>
